<svg width="60" height="60" viewBox="0 0 60 60" fill="none" xmlns="http://www.w3.org/2000/svg">
<path d="M30 60C46.5685 60 60 46.5685 60 30C60 13.4315 46.5685 0 30 0C13.4315 0 0 13.4315 0 30C0 46.5685 13.4315 60 30 60Z" fill="#34AADF"/>
<path d="M12.8605 29.3428C12.8605 29.3428 27.721 23.0206 32.8748 20.7944C34.8506 19.904 41.5506 17.0545 41.5506 17.0545C41.5506 17.0545 44.643 15.808 44.3853 18.8354C44.2993 20.0821 43.6122 24.4453 42.925 29.1647C41.8942 35.8431 40.7775 43.1447 40.7775 43.1447C40.7775 43.1447 40.6057 45.1928 39.1455 45.549C37.6852 45.9052 35.28 44.3024 34.8506 43.9462C34.5069 43.6791 28.4081 39.672 26.1748 37.713C25.5735 37.1788 24.8863 36.1103 26.2606 34.8636C29.353 31.9251 33.0466 28.2743 35.28 25.9591C36.3108 24.8905 37.3415 22.3973 33.0466 25.4248C26.9479 29.788 20.935 33.8841 20.935 33.8841C20.935 33.8841 19.5606 34.7745 16.9836 33.9731C14.4066 33.1718 11.4001 32.1032 11.4001 32.1032C11.4001 32.1032 9.33868 30.7675 12.8605 29.3428Z" fill="white"/>
</svg>
