<svg width="60" height="60" viewBox="0 0 60 60" fill="none" xmlns="http://www.w3.org/2000/svg">
<path d="M1.28022 29.739C1.27882 34.7969 2.60632 39.7356 5.13054 44.0886L1.03882 58.9615L16.3276 54.9706C20.5562 57.2624 25.2941 58.4633 30.1088 58.4636H30.1215C46.0156 58.4636 58.9538 45.5877 58.9606 29.7617C58.9637 22.0928 55.9665 14.8816 50.521 9.45617C45.0765 4.03126 37.8355 1.04207 30.1203 1.03857C14.2243 1.03857 1.28702 13.9137 1.28046 29.739" fill="url(#paint0_linear_59_107)"/>
<path d="M0.250781 29.7299C0.249141 34.9698 1.62422 40.0851 4.23844 44.5939L0 60L15.837 55.8661C20.2005 58.2346 25.1135 59.4834 30.1127 59.4853H30.1256C46.59 59.4853 59.993 46.1463 60 29.7537C60.0028 21.8093 56.8978 14.3388 51.2578 8.71906C45.6171 3.10002 38.1171 0.00326661 30.1256 0C13.6584 0 0.257578 13.3371 0.251016 29.7299H0.250781ZM9.68203 43.8174L9.0907 42.8829C6.60492 38.9481 5.29289 34.4009 5.29477 29.7318C5.30016 16.1065 16.4386 5.02125 30.135 5.02125C36.7678 5.02405 43.0013 7.59814 47.6897 12.2685C52.3779 16.9393 54.9577 23.1482 54.956 29.7519C54.9499 43.3771 43.8112 54.4638 30.1256 54.4638H30.1158C25.6596 54.4615 21.2892 53.2701 17.4778 51.0187L16.5708 50.4832L7.17281 52.9362L9.68203 43.8172V43.8174Z" fill="url(#paint1_linear_59_107)"/>
<path d="M22.6588 17.3008C22.0996 16.0635 21.5111 16.0385 20.9793 16.0168C20.5438 15.9981 20.046 15.9995 19.5487 15.9995C19.0509 15.9995 18.242 16.186 17.5584 16.9291C16.874 17.673 14.9456 19.4705 14.9456 23.1266C14.9456 26.7829 17.6205 30.3162 17.9934 30.8125C18.3667 31.3078 23.1574 39.0506 30.7445 42.0293C37.0502 44.5047 38.3334 44.0124 39.7019 43.8883C41.0706 43.7646 44.1185 42.0911 44.7402 40.3559C45.3625 38.6208 45.3625 37.1336 45.176 36.8228C44.9894 36.5132 44.4916 36.3272 43.7451 35.9557C42.9984 35.5841 39.3285 33.7862 38.6444 33.5382C37.96 33.2904 37.4624 33.1668 36.9646 33.9108C36.4668 34.6538 35.0374 36.3272 34.6017 36.8228C34.1664 37.3196 33.7307 37.3814 32.9845 37.0097C32.2375 36.6368 29.8335 35.8531 26.9814 33.3217C24.7624 31.3519 23.2642 28.9195 22.8288 28.1754C22.3933 27.4325 22.7821 27.0297 23.1564 26.6594C23.4918 26.3265 23.9031 25.7917 24.2767 25.3579C24.6489 24.9239 24.7731 24.6143 25.022 24.1187C25.2712 23.6226 25.1465 23.1887 24.9602 22.817C24.7731 22.4453 23.3226 18.7703 22.6588 17.301" fill="white"/>
<defs>
<linearGradient id="paint0_linear_59_107" x1="29.9997" y1="58.9615" x2="29.9997" y2="1.03857" gradientUnits="userSpaceOnUse">
<stop stop-color="#1FAF38"/>
<stop offset="1" stop-color="#60D669"/>
</linearGradient>
<linearGradient id="paint1_linear_59_107" x1="30" y1="60" x2="30" y2="0" gradientUnits="userSpaceOnUse">
<stop stop-color="#F9F9F9"/>
<stop offset="1" stop-color="white"/>
</linearGradient>
</defs>
</svg>
